<?xml version="1.0" encoding="utf-8"?>
<!-- Generator: Adobe Illustrator 27.0.0, SVG Export Plug-In . SVG Version: 6.00 Build 0)  -->
<svg version="1.1" id="Layer_1" xmlns="http://www.w3.org/2000/svg" xmlns:xlink="http://www.w3.org/1999/xlink" x="0px" y="0px"
	 viewBox="0 0 395.1 66" style="enable-background:new 0 0 395.1 66;" xml:space="preserve">
<style type="text/css">
	.st0{fill:#1C8C44;}
	.st1{fill:#ED3331;}
	.st2{fill:#CDC92B;stroke:#CDC92B;stroke-width:2;stroke-miterlimit:10;}
	.st3{fill:#CDC92B;}
</style>
<g>
	<polygon class="st0" points="15.7,54.4 15.7,32.8 17.7,29.2 21,21.4 26.4,20.8 30.4,22.7 33.5,31.8 35.3,43.1 35.3,54.4 	"/>
	<polygon class="st1" points="36,54.4 36,32.8 38,29.2 41.3,21.4 46.7,20.8 50.7,22.7 53.8,31.8 55.6,43.1 55.6,54.4 	"/>
	<g>
		<path class="st2" d="M36.5,53.4h-3.3V33.5l-2.1-1.7l0.1-0.9c0-0.3,0.4-8.4-5.9-9.6c-6.3,1.2-6,9.2-5.9,9.6l0,0.9l-2.1,1.7v19.9
			h-3.3V31.9l2-1.6c0-4.2,1.9-11.2,9-12.3l0.2,0l0.2,0c7.1,1.1,8.9,8,9,12.3l2,1.6V53.4z"/>
	</g>
	<path class="st3" d="M26.1,13.4h-0.3l0.5-1c0.1-0.2,0-0.5-0.3-0.5h-0.1c0.2-0.3,0.3-0.7,0.3-0.9c0-0.5,0-1.9-1-1.9
		c-1,0-1,1.4-1,1.9c0,0.2,0.2,0.5,0.3,0.9h-0.1c-0.2,0-0.4,0.3-0.3,0.5l0.5,1h-0.3c-0.2,0-0.4,0.3-0.3,0.5l0.5,1h-0.3
		c-0.2,0-0.4,0.3-0.3,0.5l0.5,1h-0.3c-0.2,0-0.4,0.3-0.3,0.5l0.8,1.4c0.1,0.2,0.4,0.2,0.5,0l0.8-1.4c0.1-0.2,0-0.5-0.3-0.5h-0.3
		l0.5-1c0.1-0.2,0-0.5-0.3-0.5h-0.3l0.5-1C26.4,13.7,26.3,13.4,26.1,13.4z"/>
	<g>
		<path class="st2" d="M56,53.4h-3.3V33.5l-2.1-1.7l0.1-0.9c0-0.3,0.4-8.4-5.9-9.6c-6.3,1.2-6,9.2-5.9,9.6l0,0.9l-2.1,1.7v19.9h-3.3
			V31.9l2-1.6c0-4.2,1.9-11.2,9-12.3l0.2,0l0.2,0c7.1,1.1,8.9,8,9,12.3l2,1.6V53.4z"/>
	</g>
	<path class="st3" d="M45.5,13.4h-0.3l0.5-1c0.1-0.2,0-0.5-0.3-0.5h-0.1c0.2-0.3,0.3-0.7,0.3-0.9c0-0.5,0-1.9-1-1.9
		c-1,0-1,1.4-1,1.9c0,0.2,0.2,0.5,0.3,0.9h-0.1c-0.2,0-0.4,0.3-0.3,0.5l0.5,1h-0.3c-0.2,0-0.4,0.3-0.3,0.5l0.5,1h-0.3
		c-0.2,0-0.4,0.3-0.3,0.5l0.5,1h-0.3c-0.2,0-0.4,0.3-0.3,0.5l0.8,1.4c0.1,0.2,0.4,0.2,0.5,0l0.8-1.4c0.1-0.2,0-0.5-0.3-0.5h-0.3
		l0.5-1c0.1-0.2,0-0.5-0.3-0.5h-0.3l0.5-1C45.9,13.7,45.7,13.4,45.5,13.4z"/>
	<g>
		<g>
			<path class="st3" d="M44.5,33.7c-1,0-1-1.4-1-2c0-0.5,0-2,1-2c1,0,1,1.4,1,2C45.5,32.3,45.5,33.7,44.5,33.7z"/>
		</g>
		<g>
			<path class="st3" d="M43.2,35.1c0,1.1-1.4,1.1-1.9,1.1c-0.5,0-1.9,0-1.9-1.1c0-1.1,1.4-1.1,1.9-1.1C41.8,34,43.2,34,43.2,35.1z"
				/>
		</g>
		<g>
			<path class="st3" d="M44.5,36.4c1,0,1,1.4,1,2c0,0.5,0,2-1,2c-1,0-1-1.4-1-2C43.5,37.9,43.5,36.4,44.5,36.4z"/>
		</g>
		<g>
			<path class="st3" d="M45.8,35.1c0-1.1,1.4-1.1,1.9-1.1c0.5,0,1.9,0,1.9,1.1c0,1.1-1.4,1.1-1.9,1.1C47.2,36.1,45.8,36.1,45.8,35.1
				z"/>
		</g>
		<ellipse class="st3" cx="44.5" cy="35.1" rx="0.6" ry="0.6"/>
	</g>
	<g>
		<g>
			<path class="st3" d="M25.5,33.1c-1,0-1-1.4-1-2s0-2,1-2c1,0,1,1.4,1,2S26.5,33.1,25.5,33.1z"/>
		</g>
		<g>
			<path class="st3" d="M24.2,34.4c0,1.1-1.4,1.1-1.9,1.1c-0.5,0-1.9,0-1.9-1.1c0-1.1,1.4-1.1,1.9-1.1
				C22.8,33.4,24.2,33.4,24.2,34.4z"/>
		</g>
		<g>
			<path class="st3" d="M25.5,35.8c1,0,1,1.4,1,2c0,0.5,0,2-1,2c-1,0-1-1.4-1-2C24.5,37.2,24.5,35.8,25.5,35.8z"/>
		</g>
		<g>
			<path class="st3" d="M26.8,34.4c0-1.1,1.4-1.1,1.9-1.1c0.5,0,1.9,0,1.9,1.1c0,1.1-1.4,1.1-1.9,1.1C28.2,35.5,26.8,35.5,26.8,34.4
				z"/>
		</g>
		<ellipse class="st3" cx="25.5" cy="34.4" rx="0.6" ry="0.6"/>
	</g>
</g>
<path class="st3" d="M70,52.6c-2.6-1.4-4.6-3.4-6-5.9c-1.5-2.5-2.2-5.3-2.2-8.5c0-3.1,0.7-6,2.2-8.5c1.5-2.5,3.5-4.5,6-5.9
	c2.6-1.4,5.4-2.1,8.6-2.1c3.2,0,6.1,0.7,8.6,2.1c2.6,1.4,4.6,3.4,6,5.9c1.5,2.5,2.2,5.3,2.2,8.5c0,3.1-0.7,6-2.2,8.5
	c-1.5,2.5-3.5,4.5-6,5.9c-2.6,1.4-5.4,2.1-8.6,2.1C75.5,54.8,72.6,54.1,70,52.6z M83.6,47.2c1.5-0.9,2.6-2.1,3.5-3.6
	c0.8-1.6,1.3-3.3,1.3-5.3c0-2-0.4-3.7-1.3-5.3c-0.8-1.6-2-2.8-3.5-3.6c-1.5-0.9-3.1-1.3-4.9-1.3c-1.8,0-3.5,0.4-4.9,1.3
	c-1.5,0.9-2.6,2.1-3.5,3.6c-0.8,1.6-1.3,3.3-1.3,5.3c0,2,0.4,3.7,1.3,5.3c0.8,1.6,2,2.8,3.5,3.6c1.5,0.9,3.1,1.3,4.9,1.3
	C80.5,48.5,82.2,48.1,83.6,47.2z"/>
<path class="st3" d="M120.5,54.2l-5.9-8.9h-0.4H108v8.9h-7.1v-32h13.3c2.7,0,5.1,0.5,7.1,1.4c2,0.9,3.6,2.3,4.6,4
	c1.1,1.7,1.6,3.8,1.6,6.2s-0.5,4.4-1.6,6.1c-1.1,1.7-2.7,3-4.7,3.9l6.9,10.3H120.5z M118.7,29.7c-1.1-1-2.7-1.4-4.9-1.4H108v11.1
	h5.8c2.1,0,3.8-0.5,4.9-1.5c1.1-1,1.7-2.3,1.7-4.1C120.4,32.1,119.8,30.7,118.7,29.7z"/>
<path class="st3" d="M139.5,52.6c-2.6-1.4-4.6-3.4-6-5.9c-1.5-2.5-2.2-5.3-2.2-8.5c0-3.1,0.7-6,2.2-8.5s3.5-4.5,6-5.9
	c2.6-1.4,5.4-2.1,8.6-2.1c3.2,0,6.1,0.7,8.6,2.1c2.6,1.4,4.6,3.4,6,5.9s2.2,5.3,2.2,8.5c0,3.1-0.7,6-2.2,8.5c-1.5,2.5-3.5,4.5-6,5.9
	c-2.6,1.4-5.4,2.1-8.6,2.1C145,54.8,142.1,54.1,139.5,52.6z M153.1,47.2c1.5-0.9,2.6-2.1,3.5-3.6c0.8-1.6,1.3-3.3,1.3-5.3
	c0-2-0.4-3.7-1.3-5.3c-0.8-1.6-2-2.8-3.5-3.6c-1.5-0.9-3.1-1.3-4.9-1.3c-1.8,0-3.5,0.4-4.9,1.3c-1.5,0.9-2.6,2.1-3.5,3.6
	c-0.8,1.6-1.3,3.3-1.3,5.3c0,2,0.4,3.7,1.3,5.3c0.8,1.6,2,2.8,3.5,3.6c1.5,0.9,3.1,1.3,4.9,1.3C150,48.5,151.6,48.1,153.1,47.2z"/>
<path class="st3" d="M176.6,52.7c-2.5-1.4-4.5-3.4-6-5.9c-1.5-2.5-2.2-5.3-2.2-8.5c0-3.2,0.7-6,2.2-8.5c1.5-2.5,3.4-4.5,6-5.9
	c2.5-1.4,5.4-2.1,8.6-2.1c2.7,0,5.1,0.5,7.2,1.5c2.2,1,4,2.4,5.4,4.2l-4.6,4.4c-2.1-2.5-4.7-3.7-7.7-3.7c-1.9,0-3.6,0.4-5.1,1.3
	c-1.5,0.9-2.7,2.1-3.5,3.6c-0.8,1.6-1.3,3.3-1.3,5.3c0,2,0.4,3.7,1.3,5.3c0.8,1.6,2,2.8,3.5,3.6c1.5,0.9,3.2,1.3,5.1,1.3
	c3.1,0,5.7-1.3,7.7-3.8l4.6,4.4c-1.5,1.9-3.3,3.3-5.5,4.2c-2.2,1-4.6,1.5-7.3,1.5C182,54.8,179.2,54.1,176.6,52.7z"/>
<path class="st3" d="M208.2,52.7c-2.5-1.4-4.5-3.4-6-5.9c-1.5-2.5-2.2-5.3-2.2-8.5c0-3.2,0.7-6,2.2-8.5c1.5-2.5,3.4-4.5,6-5.9
	c2.5-1.4,5.4-2.1,8.6-2.1c2.7,0,5.1,0.5,7.2,1.5c2.2,1,4,2.4,5.4,4.2l-4.6,4.4c-2.1-2.5-4.7-3.7-7.7-3.7c-1.9,0-3.6,0.4-5.1,1.3
	c-1.5,0.9-2.7,2.1-3.5,3.6c-0.8,1.6-1.3,3.3-1.3,5.3c0,2,0.4,3.7,1.3,5.3c0.8,1.6,2,2.8,3.5,3.6c1.5,0.9,3.2,1.3,5.1,1.3
	c3.1,0,5.7-1.3,7.7-3.8l4.6,4.4c-1.5,1.9-3.3,3.3-5.5,4.2c-2.2,1-4.6,1.5-7.3,1.5C213.6,54.8,210.7,54.1,208.2,52.7z"/>
<path class="st3" d="M253.9,47.4h-14.3l-2.7,6.8h-7.3l13.7-32h7l13.8,32h-7.5L253.9,47.4z M251.7,41.8l-4.9-12.2l-4.9,12.2H251.7z"
	/>
<path class="st3" d="M295.6,22.3v32h-5.9l-15.4-19.4v19.4h-7v-32h5.9l15.3,19.4V22.3H295.6z"/>
<path class="st3" d="M302.8,53.6c-1.7-0.8-3.2-2-4.3-3.4l4-4.9c1.7,2.3,3.6,3.5,5.7,3.5c2.9,0,4.4-1.8,4.4-5.3V28.2h-10.8v-5.9h17.9
	V43c0,3.9-0.9,6.9-2.8,8.8c-1.9,2-4.6,2.9-8.3,2.9C306.5,54.8,304.6,54.4,302.8,53.6z"/>
<path class="st3" d="M332.9,52.6c-2.6-1.4-4.6-3.4-6-5.9c-1.5-2.5-2.2-5.3-2.2-8.5c0-3.1,0.7-6,2.2-8.5c1.5-2.5,3.5-4.5,6-5.9
	c2.6-1.4,5.4-2.1,8.6-2.1c3.2,0,6.1,0.7,8.6,2.1c2.6,1.4,4.6,3.4,6,5.9s2.2,5.3,2.2,8.5c0,3.1-0.7,6-2.2,8.5c-1.5,2.5-3.5,4.5-6,5.9
	c-2.6,1.4-5.4,2.1-8.6,2.1C338.4,54.8,335.5,54.1,332.9,52.6z M346.5,47.2c1.5-0.9,2.6-2.1,3.5-3.6c0.8-1.6,1.3-3.3,1.3-5.3
	c0-2-0.4-3.7-1.3-5.3c-0.8-1.6-2-2.8-3.5-3.6c-1.5-0.9-3.1-1.3-4.9-1.3c-1.8,0-3.5,0.4-4.9,1.3c-1.5,0.9-2.6,2.1-3.5,3.6
	c-0.8,1.6-1.3,3.3-1.3,5.3c0,2,0.4,3.7,1.3,5.3c0.8,1.6,2,2.8,3.5,3.6c1.5,0.9,3.1,1.3,4.9,1.3C343.4,48.5,345.1,48.1,346.5,47.2z"
	/>
<path class="st3" d="M377.3,42.9v11.3h-7.1V42.8l-11.9-20.5h7.6l8.2,14.2l8.2-14.2h7L377.3,42.9z"/>
</svg>
