<?xml version="1.0" encoding="utf-8"?>
<!-- Generator: Adobe Illustrator 27.0.0, SVG Export Plug-In . SVG Version: 6.00 Build 0)  -->
<svg version="1.1" id="Layer_1" xmlns="http://www.w3.org/2000/svg" xmlns:xlink="http://www.w3.org/1999/xlink" x="0px" y="0px"
	 viewBox="0 0 106 107" style="enable-background:new 0 0 106 107;" xml:space="preserve">
<style type="text/css">
	.st0{fill:#CDC92C;}
</style>
<path class="st0" d="M55.3,96.5h-7V55.3l-4.5-3.5l0.1-1.8c0-0.7,0.8-17.4-12.8-19.8C17.6,32.6,18.4,49.3,18.4,50l0.1,1.8l-4.4,3.5
	v41.2h-7V51.9l4.3-3.4c0.1-8.7,4.1-23.1,19.3-25.4l0.5-0.1l0.5,0.1C46.9,25.4,50.9,39.8,51,48.5l4.3,3.4V96.5z"/>
<path class="st0" d="M32.9,14.9h-0.6l1.2-2c0.2-0.4-0.1-0.9-0.6-0.9h-0.3c0.4-0.7,0.7-1.4,0.7-1.8c0-1.1,0-3.9-2.1-3.9
	s-2.1,2.8-2.1,3.9c0,0.4,0.3,1.1,0.7,1.8h-0.3c-0.5,0-0.8,0.5-0.6,0.9l1.2,2h-0.6c-0.5,0-0.8,0.5-0.6,0.9l1.2,2h-0.6
	c-0.5,0-0.8,0.5-0.6,0.9l1.2,2h-0.6c-0.5,0-0.8,0.5-0.6,0.9l1.7,2.9c0.2,0.4,0.9,0.4,1.1,0l1.7-2.9c0.2-0.4-0.1-0.9-0.6-0.9h-0.6
	l1.2-2c0.2-0.4-0.1-0.9-0.6-0.9h-0.6l1.2-2C33.6,15.5,33.3,14.9,32.9,14.9L32.9,14.9z"/>
<path class="st0" d="M97,97.2h-7V56l-4.5-3.5l0.1-1.8c0-0.7,0.8-17.4-12.8-19.8C59.4,33.3,60.1,50,60.2,50.7l0.1,1.8L55.8,56v41.2
	h-7V52.6l4.3-3.4c0.1-8.7,4.1-23.1,19.3-25.4l0.5-0.1l0.5,0.1c15.2,2.2,19.2,16.6,19.3,25.4l4.3,3.4V97.2z"/>
<path class="st0" d="M74.6,15.7H74l1.2-2c0.2-0.4-0.1-0.9-0.6-0.9h-0.3c0.4-0.7,0.7-1.4,0.7-1.8C75,9.8,75,7,72.9,7
	s-2.1,2.8-2.1,3.9c0,0.4,0.3,1.1,0.7,1.8h-0.3c-0.5,0-0.8,0.5-0.6,0.9l1.2,2h-0.6c-0.5,0-0.8,0.5-0.6,0.9l1.2,2h-0.6
	c-0.5,0-0.8,0.5-0.6,0.9l1.2,2h-0.6c-0.5,0-0.8,0.5-0.6,0.9l1.7,2.9c0.2,0.4,0.9,0.4,1.1,0l1.7-2.9c0.2-0.4-0.1-0.9-0.6-0.9H74
	l1.2-2c0.2-0.4-0.1-0.9-0.6-0.9H74l1.2-2C75.4,16.2,75.1,15.7,74.6,15.7L74.6,15.7z"/>
<g>
	<path class="st0" d="M72.9,55.7c-2.2,0-2.2-3-2.2-4.1s0-4.1,2.2-4.1s2.2,3,2.2,4.1S75.1,55.7,72.9,55.7z"/>
	<path class="st0" d="M70.1,58.5c0,2.2-3,2.2-4.1,2.2s-4.1,0-4.1-2.2s3-2.2,4.1-2.2S70.1,56.3,70.1,58.5z"/>
	<path class="st0" d="M72.9,61.3c2.2,0,2.2,3,2.2,4.1s0,4.1-2.2,4.1s-2.2-3-2.2-4.1S70.7,61.3,72.9,61.3z"/>
	<path class="st0" d="M75.7,58.5c0-2.2,3-2.2,4.1-2.2s4.1,0,4.1,2.2s-3,2.2-4.1,2.2S75.7,60.7,75.7,58.5z"/>
	<circle class="st0" cx="72.9" cy="58.5" r="1.3"/>
</g>
<g>
	<path class="st0" d="M31.6,54.4c-2.2,0-2.2-3-2.2-4.1s0-4.1,2.2-4.1s2.2,3,2.2,4.1S33.8,54.4,31.6,54.4z"/>
	<path class="st0" d="M28.8,57.2c0,2.2-3,2.2-4.1,2.2s-4.1,0-4.1-2.2s3-2.2,4.1-2.2S28.8,55,28.8,57.2z"/>
	<path class="st0" d="M31.6,60c2.2,0,2.2,3,2.2,4.1s0,4.1-2.2,4.1s-2.2-3-2.2-4.1S29.4,60,31.6,60z"/>
	<path class="st0" d="M34.4,57.2c0-2.2,3-2.2,4.1-2.2s4.1,0,4.1,2.2s-3,2.2-4.1,2.2S34.4,59.4,34.4,57.2z"/>
	<circle class="st0" cx="31.6" cy="57.2" r="1.3"/>
</g>
</svg>
