<?xml version="1.0" encoding="utf-8"?>
<!-- Generator: Adobe Illustrator 24.1.0, SVG Export Plug-In . SVG Version: 6.00 Build 0)  -->
<svg version="1.1" id="Layer_1" xmlns="http://www.w3.org/2000/svg" xmlns:xlink="http://www.w3.org/1999/xlink" x="0px" y="0px"
	 viewBox="0 0 67.2 66" enable-background="new 0 0 67.2 66" xml:space="preserve">
<g>
	<path fill="#29CE29" d="M22.1,29c0,1.5,0,3,0,4.5c0,0.1-0.1,0.3-0.2,0.3c-1.3,0.5-2.6,0.9-3.9,1.4c-0.1-2-1.1-3.4-3.1-4
		c0.1-0.3,0.2-0.6,0.2-0.8c0.1-0.7-0.4-1.3-1-1.4c-0.5,0-1.1,0.6-1.1,1.2c0,0.3,0.1,0.6,0.2,1c-1,0.1-1.9,0.5-2.6,1.4
		c-0.7,0.8-1,1.8-1,2.9c-2.3-1.1-4.8-1.1-7.3-0.7c-0.4-11,3.8-19.9,12.4-26.5c10.1-7.9,23.6-8.9,34.8-2.1
		c10.8,6.4,16.2,18.3,15.3,28.6c-2.4-0.4-4.8-0.4-7.1,0.7c0-1.1-0.2-2.1-1-2.9c-0.7-0.8-1.6-1.3-2.7-1.4c0.3-0.7,0.4-1.4-0.3-2
		c-0.4-0.3-0.7-0.2-1.1,0.1c-0.5,0.4-0.6,1-0.2,2c-2,0.5-3.1,1.9-3.2,4c-1-0.3-1.9-0.7-2.9-1c-0.5-0.2-1-0.3-1.6-0.4
		c-0.1,0-0.3-0.2-0.3-0.3c0-1.4,0-2.9,0-4.3c0.7-0.2,1.1-0.5,1.1-0.9c0-0.5-0.4-0.8-1.3-1c0.4-0.6,0.6-1.3,0-1.9
		c-0.3-0.3-0.9-0.3-1.2-0.1c-0.5,0.3-0.5,0.7-0.1,2c-0.6,0.1-1.3,0.2-1.3,1c0,0.6,0.5,0.8,1,0.9c0,1.4,0,2.8,0,4.2
		c-1.2-0.1-2.4-0.3-3.6-0.4c-0.1,0-0.3-0.2-0.3-0.3c-0.6-1.3-1.5-2.3-2.8-2.9c-1.2-0.5-1.8-1.4-1.8-2.7c0-0.1,0-0.2,0-0.4
		c-0.4,0-0.8,0-1.3,0c0,0.3-0.1,0.6-0.1,0.9c0,0.9-0.4,1.6-1.3,1.9c-1.2,0.5-2.3,1.3-2.8,2.5c-0.4,0.7-0.8,1-1.6,1
		c-1,0-2,0.3-2.9,0.4c-0.1,0-0.2,0-0.3,0c0-1.4,0-2.8,0-4.2c0.7-0.2,1.1-0.5,1-1c-0.1-0.5-0.5-0.8-1.1-0.9c0.1-0.5,0.2-0.9,0.2-1.4
		c0-0.2-0.2-0.4-0.4-0.6c-0.3-0.3-0.9-0.2-1.2,0.1c-0.5,0.4-0.5,1,0,1.9c-0.6,0.2-1.3,0.2-1.3,1C21.2,28.6,21.6,28.8,22.1,29z
		 M35.6,7.6c-1.5-0.6-4.7,0-6.5,2.3c-1.9,2.3-2,5.5-0.3,8c1.8,2.6,4.9,3.6,7.8,2.6c2.4-0.8,4.3-3.1,4.3-5.3
		c-0.1,0.1-0.2,0.2-0.2,0.3c-1.2,1.4-2.7,2.3-4.6,2.4c-3,0.1-5.4-2.8-4.7-5.8c0.5-2.2,1.8-3.6,3.9-4.3C35.4,7.7,35.5,7.6,35.6,7.6z
		 M48.6,17c0,0,0.1,0,0.1,0c0-0.1,0.1-0.2,0.1-0.3c0.4-1.3,1.1-2.3,2.4-2.7c0.1,0,0.3-0.1,0.4-0.1c0.1,0,0.1-0.1,0.2-0.2
		c-0.1-0.1-0.1-0.1-0.2-0.2c-0.1,0-0.1-0.1-0.2-0.1c-1.5-0.3-2.3-1.3-2.6-2.7c0-0.1-0.1-0.2-0.1-0.3c-0.1,0.1-0.1,0.1-0.1,0.1
		c-0.3,1.6-1.2,2.6-2.8,2.9c-0.1,0-0.2,0.1-0.3,0.2c0,0,0,0.1,0,0.1C47.3,14,48.2,15.2,48.6,17z M23.9,5.8c-0.4,0.8-0.7,1.6-1.2,2.1
		c-0.5,0.5-1.3,0.8-2,1.2c2.3,1,2,0.5,3.1,3.1c0.4-0.7,0.6-1.5,1.2-2c0.5-0.5,1.3-0.8,2.1-1.3C25.3,8.7,24.2,7.6,23.9,5.8z
		 M16.3,25.3c0.4-0.7,0.7-1.4,1.2-1.9c0.5-0.5,1.3-0.7,1.9-1c-0.6-0.3-1.4-0.5-1.9-1c-0.5-0.5-0.8-1.2-1.1-1.8
		c-0.3,0.5-0.6,1.3-1.1,1.8c-0.5,0.5-1.3,0.7-1.9,1.1C15,22.7,16,23.6,16.3,25.3z M46.4,23.3c1.5,0.3,2.4,1.2,2.8,2.6
		c0.4-1.5,1.3-2.2,2.7-2.6c-1.4-0.4-2.3-1.2-2.8-2.6C48.8,22.2,47.7,22.9,46.4,23.3z M55.8,28.9c0.1-0.2,0.2-0.3,0.2-0.4
		c0.3-1,0.9-1.6,1.9-1.9c0.1,0,0.3-0.1,0.4-0.2c0.1,0,0.1-0.3,0-0.3c-0.1-0.1-0.2-0.1-0.4-0.2c-0.9-0.2-1.5-0.8-1.8-1.6
		c-0.1-0.2-0.2-0.3-0.3-0.5c0,0-0.1,0-0.1,0c-0.3,1.4-1.4,2-2.7,2.4C54.4,26.7,55.4,27.4,55.8,28.9z M7.1,26c1.4,0.3,2.2,1,2.6,2.3
		c0.4-1.3,1.3-1.9,2.5-2.2c-0.6-0.4-1.2-0.6-1.6-0.9c-0.4-0.4-0.7-0.9-1-1.4c-0.3,0.5-0.6,1-1,1.4C8.3,25.5,7.7,25.6,7.1,26z
		 M34.6,24.5c-0.7,0.3-1.1,0.3-1.4-0.1c-0.3-0.4-0.2-0.9,0.3-1.5c-0.5-0.3-1-0.1-1.4,0.4c-0.5,0.7-0.2,1.7,0.6,2.2
		c0.8,0.5,1.8,0.3,2.4-0.5C35,24.9,34.8,24.7,34.6,24.5z M57.5,18.3c-0.5-0.3-0.8-0.4-1.1-0.7c-0.3-0.3-0.4-0.6-0.7-1
		c-0.3,1-1,1.3-1.8,1.6c0.4,0.3,0.8,0.5,1.1,0.7c0.3,0.3,0.5,0.6,0.8,1C56.1,19.2,56.7,18.7,57.5,18.3z M38.7,12
		c-0.7-0.3-1.3-0.8-1.6-1.6c-0.3,0.9-1,1.3-1.7,1.6c0.8,0.2,1.3,0.8,1.7,1.7C37.5,12.8,38,12.3,38.7,12z M16.2,9.9
		c-0.3,0.8-0.9,1.2-1.5,1.5c0.8,0.2,1.2,0.8,1.6,1.6c0.3-0.9,0.8-1.4,1.5-1.7C17,11.1,16.5,10.7,16.2,9.9z M29.1,24
		c-0.5-0.5-1-0.9-1.5-1.4c-0.2,0.7-0.8,0.9-1.4,1.3c0.7,0.2,1.2,0.8,1.6,1.5C28,24.6,28.5,24.2,29.1,24z M19.4,15.8
		c0-0.4-0.3-0.7-0.8-0.7c-0.4,0-0.7,0.3-0.7,0.7c0,0.4,0.4,0.8,0.8,0.8C19.1,16.6,19.4,16.2,19.4,15.8z M58,21.7
		c-0.4,0-0.7,0.4-0.7,0.8c0,0.4,0.4,0.7,0.8,0.7c0.4,0,0.7-0.3,0.7-0.7C58.8,22,58.4,21.6,58,21.7z M44.8,9.7C44.8,9.3,44.4,9,44,9
		c-0.4,0-0.7,0.3-0.7,0.7c0,0.4,0.4,0.8,0.8,0.7C44.5,10.4,44.8,10.1,44.8,9.7z M9.7,19.2c-0.4,0-0.7,0.4-0.7,0.7
		c0,0.4,0.4,0.7,0.8,0.7c0.4,0,0.7-0.3,0.7-0.7C10.4,19.6,10.1,19.2,9.7,19.2z M26,18.4c0-0.4-0.4-0.8-0.8-0.7
		c-0.4,0-0.7,0.3-0.7,0.7c0,0.4,0.4,0.7,0.8,0.7C25.7,19.1,26,18.8,26,18.4z M40.9,7.1c0-0.4-0.3-0.7-0.7-0.7
		c-0.4,0-0.7,0.3-0.7,0.7c0,0.4,0.3,0.8,0.7,0.8C40.6,7.8,40.9,7.5,40.9,7.1z M41.3,22.6c0-0.4-0.3-0.7-0.8-0.7
		c-0.4,0-0.7,0.3-0.7,0.7c0,0.4,0.3,0.7,0.7,0.7C41,23.2,41.3,23,41.3,22.6z M13.8,18.2c0.4,0,0.7-0.3,0.8-0.6
		c0-0.4-0.3-0.8-0.7-0.8c-0.4,0-0.7,0.3-0.7,0.6C13.1,17.9,13.4,18.2,13.8,18.2z M43.3,17.6c-0.4,0-0.7,0.3-0.7,0.7
		c0,0.4,0.3,0.7,0.7,0.7c0.4,0,0.7-0.3,0.7-0.7C44.1,17.9,43.8,17.6,43.3,17.6z M51.6,20.3c0.3,0,0.6-0.3,0.6-0.6
		c0-0.4-0.3-0.6-0.6-0.6c-0.3,0-0.5,0.2-0.5,0.6C51,20,51.3,20.3,51.6,20.3z M20.3,19.8c0.1,0.4,0.4,0.8,0.6,0.7
		c0.2-0.1,0.4-0.3,0.5-0.5c0.1-0.3-0.3-0.6-0.6-0.6C20.7,19.4,20.5,19.6,20.3,19.8z M49.7,28.3c0-0.1,0-0.1,0-0.2
		c-0.2-0.1-0.4-0.3-0.6-0.3c-0.1,0-0.4,0.3-0.4,0.4c0.1,0.2,0.3,0.4,0.4,0.4C49.3,28.6,49.5,28.4,49.7,28.3z M17.4,27.6
		c-0.3-0.2-0.4-0.4-0.6-0.4c-0.1,0-0.4,0.2-0.4,0.4c0,0.1,0.2,0.4,0.4,0.4C17,28,17.2,27.8,17.4,27.6z"/>
	<path fill="#29CE29" d="M25.5,44.5c-1.6-0.4-3.2-0.5-4.9-0.5c-0.9,0-1.1,0.5-0.8,1.1c0.5,1.1,1,2.3,1.6,3.4
		c0.5,0.9,1.2,1.6,1.8,2.5c-0.8-0.1-1.6-0.2-2.4-0.2c-3.6-0.2-7.2-0.1-10.5,1.5c-0.1,0-0.1,0.1-0.2,0.1c-0.8,0.4-0.8,0.4-1.3-0.3
		c-0.8-1.1-1.6-2.2-2.4-3.2c0-0.1,0.1-0.1,0.1-0.2c1-0.1,2.1-0.2,3.1-0.2c1.4,0.1,2.7,0.3,4.1,0.5c1,0.2,1.9,0.5,2.9,0.7
		c0.8,0.2,1.2-0.1,1.2-1c0-2,0-4,0-6c0-0.2,0.1-0.4,0.2-0.6c0.7-0.7,1.4-1.4,2.1-2c0.3-0.2,0.6-0.5,0.4-0.9
		c-0.1-0.4-0.5-0.5-0.9-0.6c-0.7,0-1.3,0.2-1.9,0.8c0-0.5,0-0.9,0-1.3c0-0.1,0.2-0.3,0.4-0.4c1.2-0.5,2.3-1.1,3.5-1.6
		c1.8-0.7,3.7-1,5.5-1.2c0.2,0,0.4,0,0.7,0c0,0.2,0.1,0.4,0.1,0.6c0.6,0,1.2,0,1.8,0c0.1-0.7,0.1-1.3,0.2-1.9c0.2-0.9,0.8-1.6,1.6-2
		c0.7-0.4,1.3-0.8,2-1.2c0.6,0.4,1.3,0.8,2,1.2c1.5,0.9,1.9,2.3,1.6,3.9c0.6,0,1.2,0,1.9,0c0-0.2,0.1-0.4,0.1-0.6
		c0.6,0.1,1.3,0.1,1.9,0.2c2,0.3,4,0.8,5.8,1.6c0.7,0.3,1.3,0.6,1.9,1c0.3,0.2,0.5,0.4,0.4,0.7c0,0.3,0,0.5,0,0.9
		c-0.2-0.1-0.3-0.2-0.5-0.3c-0.5-0.4-1.1-0.4-1.8-0.3c-0.6,0.1-0.8,0.6-0.4,1.1c0.1,0.1,0.2,0.2,0.4,0.3c0.7,0.7,1.4,1.3,2.1,2
		c0.1,0.1,0.1,0.3,0.1,0.4c0,1.9,0,3.8,0,5.7c0,0.1,0,0.3,0,0.4c0.1,0.7,0.6,1.1,1.2,0.9c1.5-0.3,2.9-0.7,4.4-1
		c1.9-0.3,3.7-0.4,5.7,0.1c-1,1.4-2,2.7-2.9,4c-4.4-2.5-9-2.4-13.7-1.9c0.3-0.4,0.6-0.7,0.8-1c1.1-1.4,2-2.9,2.6-4.6
		c0-0.1,0.1-0.2,0.1-0.3c0.1-0.6-0.1-0.9-0.8-1c-1.6-0.1-3.1,0.1-4.7,0.5c-0.1,0-0.2,0.1-0.3,0.1c0.3-1.2,0.7-2.5,0.9-3.7
		c0.1-0.7,0.1-1.4,0.1-2.1c0-0.6-0.2-0.8-0.8-0.7c-1.4,0.1-2.8,0.5-4.2,1c-0.2,0.1-0.4,0.1-0.6,0.2c-0.4-0.8-0.8-1.6-1.3-2.3
		c-0.5-0.7-1-1.4-1.6-2.1c-0.5-0.6-0.8-0.6-1.4,0c-1.1,1.2-1.9,2.6-2.6,4.1c0,0.1-0.1,0.2-0.1,0.2c-1-0.3-2-0.6-3.1-0.9
		c-0.6-0.2-1.3-0.2-1.9-0.3c-0.5-0.1-0.7,0.2-0.7,0.6c0,0.7,0,1.4,0.1,2.1C24.9,42,25.3,43.2,25.5,44.5z"/>
	<path fill="#29CE29" d="M30.6,59.4c-3.5-3-9.1-3-12.8,0.5c-0.8-0.5-1.6-1.1-2.4-1.6c0.9-0.9,2-1.5,3.1-1.8c0.5-0.1,1-0.2,1.5-0.3
		c0.7-0.1,1.2-0.5,1.2-1.1c0-0.6-0.4-1-1.2-1.1c-2.2-0.1-4.1,0.7-5.9,1.9c-0.3,0.2-0.6,0.5-1,0.8c-0.6-0.6-1.2-1.2-1.9-1.8
		c0.9-0.6,1.9-0.9,2.9-1.2c4-1,7.9-0.7,11.8,0.4c1.6,0.5,3.1,1.3,4.4,2.4c0.1,0.1,0.2,0.3,0.2,0.4C30.6,57.6,30.6,58.4,30.6,59.4z"
		/>
	<path fill="#29CE29" d="M36.5,59.3c0-0.8,0-1.6,0-2.5c0-0.1,0.1-0.3,0.2-0.4c2.1-1.7,4.5-2.6,7.2-3c1.7-0.3,3.4-0.5,5.1-0.3
		c2.2,0.1,4.5,0.4,6.5,1.6c0.1,0.1,0.2,0.1,0.3,0.2c-0.7,0.6-1.3,1.2-1.9,1.8c-0.7-0.5-1.4-1-2.1-1.4c-1.5-0.9-3-1.3-4.8-1.2
		c-0.7,0-1.2,0.4-1.2,0.9c0,0.6,0.4,1.1,1.2,1.2c1.7,0.2,3.2,0.8,4.6,1.9c0.1,0.1,0.1,0.1,0.3,0.2c-0.8,0.6-1.7,1.1-2.5,1.7
		C45.2,56.6,41,56.2,36.5,59.3z"/>
	<path fill="#29CE29" d="M15.7,47.1c-0.8-0.2-1.5-0.4-2.2-0.6c-0.5-0.1-1-0.2-1.5-0.3c-0.4,0-0.4-0.2-0.4-0.5c0-0.9,0-1.8,0-2.7
		c0-2.5,0-4.9,0-7.4c0-0.5,0.2-1.1,0.4-1.5c0.4-0.7,1.4-1.1,2.3-0.8c0.8,0.2,1.5,1,1.5,1.8c0,3.9,0,7.8,0,11.8
		C15.8,47,15.7,47,15.7,47.1z"/>
	<path fill="#29CE29" d="M55.6,46.1c-1.4,0.3-2.8,0.6-4.1,0.9c0-0.1,0-0.1,0-0.2c0-3.8,0-7.6,0-11.4c0-1.1,0.6-1.9,1.6-2.1
		c1.2-0.3,2.5,0.6,2.5,1.9c0,1.4,0,2.8,0,4.2c0,2.1,0,4.2,0,6.3C55.6,45.9,55.6,46,55.6,46.1z"/>
	<path fill="#29CE29" d="M33.6,51.8c-0.5-1.4-1.2-2.6-2-3.8c-0.2-0.3-0.2-0.8-0.3-1.2c-0.5-3.3,0.5-6.3,2.4-9
		c0.3,0.4,0.5,0.7,0.7,1.1c1.2,2,1.9,4.3,1.8,6.7c0,0.8-0.2,1.6-0.3,2.4c0,0.1-0.1,0.2-0.1,0.3c-0.4,0.6-0.8,1.1-1.2,1.7
		C34.2,50.5,34,51.1,33.6,51.8z"/>
	<path fill="#29CE29" d="M2.7,37.2c2.2-0.4,4.3-0.5,6.2,0.7c0.4,0.3,0.7,0.6,0.6,1.1c-0.1,0.6,0,1.2,0,1.8c-0.4-0.4-0.7-0.6-1-0.9
		c-0.5-0.4-1-0.7-1.6-0.6c-0.3,0-0.6,0-0.9,0c-0.4,0-0.6,0.4-0.4,0.8c0.1,0.1,0.2,0.2,0.3,0.3c0.9,0.8,1.8,1.7,2.7,2.5
		c0.1,0.1,0.3,0.3,0.4,0.4c0.5,0.2,0.5,0.6,0.5,1c0,0.6,0,1.1,0,1.7c-0.7,0-1.4,0.1-2,0.1c-0.6,0-1.1,0.1-1.7,0.2
		c-0.2,0-0.4,0-0.5-0.2C4,43.3,3,40.4,2.6,37.4C2.6,37.3,2.7,37.3,2.7,37.2z"/>
	<path fill="#29CE29" d="M64.5,37.2c-0.3,2.7-1.7,7.3-2.8,9.2c-1.3-0.1-2.6-0.2-4-0.4c0-0.8,0-1.6,0-2.2c0.6-0.6,1.2-1.2,1.7-1.8
		c0.6-0.5,1.2-1,1.8-1.6c0.1-0.1,0.2-0.1,0.2-0.2c0.1-0.2,0.2-0.5,0.1-0.7c0-0.1-0.3-0.3-0.5-0.3c-1.2-0.2-2.2,0.1-3,1.1
		c-0.1,0.1-0.2,0.3-0.5,0.4c0-0.8,0-1.5,0-2.3c0-0.2,0.3-0.5,0.6-0.6c1-0.7,2.1-1,3.3-1C62.5,36.9,63.5,36.9,64.5,37.2z"/>
	<path fill="#29CE29" d="M44.5,46.3c-1.2,3-5.2,6.4-9.4,7.9c0.5-1.9,1.3-3.6,2.7-5C39.6,47.3,41.9,46.5,44.5,46.3z"/>
	<path fill="#29CE29" d="M22.8,46.3c4.6,0.1,8,2.8,9.4,7.8C29.2,53.6,24.2,49.5,22.8,46.3z"/>
	<path fill="#29CE29" d="M36.6,64.1c-0.2-0.9,0-1.6,0.6-2.2c2.3-2.5,6.6-3,9.3-0.9c0.1,0.1,0.1,0.1,0.2,0.2
		C43.6,62.8,40.1,63.7,36.6,64.1z"/>
	<path fill="#29CE29" d="M20.3,61.1c0.8-0.8,1.7-1.1,2.7-1.3c2.8-0.5,5.1,0.2,7.1,2.2c0.6,0.6,0.6,1.3,0.5,2.1
		C27,63.7,23.6,62.7,20.3,61.1z"/>
	<path fill="#29CE29" d="M34.2,64.2c-0.5,0-0.9,0-1.3,0c0-2.9,0-5.8,0-8.7c0.4,0,0.9,0.1,1.3,0.1C34.2,58.4,34.2,61.3,34.2,64.2z"/>
	<path fill="#29CE29" d="M29.3,41.5c-0.1,1.5-0.3,2.9-0.4,4.3c-1.1-1.5-1.6-3.2-1.8-5.2C28,40.9,28.7,41.2,29.3,41.5z"/>
	<path fill="#29CE29" d="M38.5,45.8c-0.2-1.3-0.3-2.6-0.5-3.9c0-0.1,0.1-0.3,0.2-0.3c0.6-0.3,1.3-0.5,2.1-0.8
		C40.1,42.6,39.4,44.3,38.5,45.8z"/>
	<path fill="#FFFFFF" d="M35.6,7.6c-0.2,0.1-0.3,0.1-0.4,0.1c-2.1,0.7-3.5,2.1-3.9,4.3c-0.6,3,1.7,5.9,4.7,5.8
		c1.9,0,3.4-0.9,4.6-2.4c0.1-0.1,0.1-0.2,0.2-0.3c0,2.2-1.9,4.5-4.3,5.3c-2.9,1-6,0-7.8-2.6c-1.7-2.5-1.6-5.7,0.3-8
		C31,7.6,34.1,6.9,35.6,7.6z"/>
	<path fill="#FFFFFF" d="M48.6,17c-0.4-1.7-1.2-3-3.2-3.2c0,0,0-0.1,0-0.1c0.1-0.1,0.2-0.2,0.3-0.2c1.6-0.3,2.5-1.3,2.8-2.9
		c0,0,0.1-0.1,0.1-0.1c0.1,0.1,0.1,0.2,0.1,0.3c0.4,1.4,1.2,2.3,2.6,2.7c0.1,0,0.2,0,0.2,0.1c0.1,0,0.1,0.1,0.2,0.2
		c-0.1,0.1-0.1,0.1-0.2,0.2c-0.1,0.1-0.3,0.1-0.4,0.1c-1.4,0.4-2.1,1.4-2.4,2.7c0,0.1-0.1,0.2-0.1,0.3C48.7,17,48.6,17,48.6,17z"/>
	<path fill="#FFFFFF" d="M23.9,5.8c0.3,1.8,1.4,2.9,3.2,3.1c-0.8,0.5-1.6,0.7-2.1,1.3c-0.5,0.5-0.8,1.3-1.2,2
		c-1.1-2.6-0.8-2.1-3.1-3.1c0.7-0.4,1.5-0.6,2-1.2C23.2,7.5,23.5,6.7,23.9,5.8z"/>
	<path fill="#FFFFFF" d="M16.3,25.3c-0.3-1.6-1.3-2.6-2.9-2.9c0.7-0.3,1.4-0.6,1.9-1.1c0.5-0.5,0.8-1.2,1.1-1.8
		c0.3,0.6,0.6,1.3,1.1,1.8c0.5,0.5,1.3,0.7,1.9,1c-0.7,0.3-1.4,0.6-1.9,1C17,23.8,16.7,24.5,16.3,25.3z"/>
	<path fill="#FFFFFF" d="M46.4,23.3c1.4-0.4,2.4-1.1,2.7-2.6c0.4,1.4,1.4,2.2,2.8,2.6c-1.4,0.4-2.4,1.2-2.7,2.6
		C48.7,24.6,47.9,23.7,46.4,23.3z"/>
	<path fill="#FFFFFF" d="M55.8,28.9c-0.4-1.5-1.4-2.2-2.8-2.6c1.3-0.4,2.4-1,2.7-2.4c0,0,0.1,0,0.1,0c0.1,0.2,0.2,0.3,0.3,0.5
		c0.3,0.8,1,1.4,1.8,1.6c0.1,0,0.3,0.1,0.4,0.2c0.1,0,0,0.3,0,0.3c-0.1,0.1-0.2,0.1-0.4,0.2c-1,0.3-1.6,0.9-1.9,1.9
		C56,28.6,55.9,28.7,55.8,28.9z"/>
	<path fill="#FFFFFF" d="M7.1,26c0.7-0.3,1.2-0.5,1.6-0.9c0.4-0.4,0.6-0.9,1-1.4c0.3,0.4,0.6,1,1,1.4c0.4,0.4,1,0.6,1.6,0.9
		c-1.2,0.3-2.1,0.9-2.5,2.2C9.3,26.9,8.5,26.3,7.1,26z"/>
	<path fill="#FFFFFF" d="M34.6,24.5c0.2,0.2,0.3,0.4,0.5,0.6c-0.6,0.8-1.6,1.1-2.4,0.5c-0.8-0.5-1-1.5-0.6-2.2
		c0.3-0.5,0.9-0.7,1.4-0.4c-0.5,0.6-0.7,1.1-0.3,1.5C33.5,24.8,34,24.8,34.6,24.5z"/>
	<path fill="#FFFFFF" d="M57.5,18.3c-0.8,0.3-1.4,0.8-1.7,1.6c-0.3-0.4-0.5-0.8-0.8-1c-0.3-0.3-0.7-0.4-1.1-0.7
		c0.9-0.3,1.6-0.7,1.8-1.6c0.3,0.4,0.4,0.8,0.7,1C56.7,17.9,57.1,18.1,57.5,18.3z"/>
	<path fill="#FFFFFF" d="M38.7,12c-0.7,0.3-1.3,0.8-1.6,1.7c-0.4-0.9-0.9-1.5-1.7-1.7c0.7-0.4,1.4-0.7,1.7-1.6
		C37.5,11.3,38,11.7,38.7,12z"/>
	<path fill="#FFFFFF" d="M16.2,9.9c0.3,0.8,0.9,1.2,1.6,1.5c-0.7,0.3-1.2,0.8-1.5,1.7c-0.4-0.8-0.8-1.4-1.6-1.6
		C15.3,11.1,15.9,10.7,16.2,9.9z"/>
	<path fill="#FFFFFF" d="M29.1,24c-0.6,0.3-1.1,0.6-1.3,1.4c-0.4-0.8-0.8-1.3-1.6-1.5c0.6-0.4,1.2-0.6,1.4-1.3
		C28.1,23.1,28.6,23.5,29.1,24z"/>
	<path fill="#FFFFFF" d="M19.4,15.8c0,0.4-0.3,0.7-0.7,0.7c-0.4,0-0.8-0.4-0.8-0.8c0-0.4,0.3-0.7,0.7-0.7
		C19.1,15.1,19.4,15.4,19.4,15.8z"/>
	<path fill="#FFFFFF" d="M58,21.7c0.4,0,0.8,0.3,0.8,0.8c0,0.4-0.3,0.7-0.7,0.7c-0.4,0-0.8-0.3-0.8-0.7C57.3,22,57.6,21.7,58,21.7z"
		/>
	<path fill="#FFFFFF" d="M44.8,9.7c0,0.4-0.3,0.7-0.7,0.8c-0.4,0-0.8-0.3-0.8-0.7C43.3,9.3,43.6,9,44,9C44.4,9,44.8,9.3,44.8,9.7z"
		/>
	<path fill="#FFFFFF" d="M9.7,19.2c0.4,0,0.8,0.3,0.8,0.8c0,0.4-0.3,0.7-0.7,0.7c-0.4,0-0.8-0.3-0.8-0.7C8.9,19.6,9.3,19.2,9.7,19.2
		z"/>
	<path fill="#FFFFFF" d="M26,18.4c0,0.4-0.3,0.7-0.7,0.7c-0.4,0-0.8-0.3-0.8-0.7c0-0.4,0.3-0.7,0.7-0.7C25.7,17.6,26,18,26,18.4z"/>
	<path fill="#FFFFFF" d="M40.9,7.1c0,0.4-0.3,0.7-0.7,0.7c-0.4,0-0.8-0.3-0.7-0.8c0-0.4,0.3-0.7,0.7-0.7C40.6,6.4,40.9,6.7,40.9,7.1
		z"/>
	<path fill="#FFFFFF" d="M41.3,22.6c0,0.4-0.3,0.7-0.7,0.7c-0.4,0-0.7-0.3-0.7-0.7c0-0.4,0.3-0.7,0.7-0.7
		C40.9,21.8,41.3,22.1,41.3,22.6z"/>
	<path fill="#FFFFFF" d="M13.8,18.2c-0.4,0-0.7-0.3-0.7-0.8c0-0.4,0.3-0.7,0.7-0.6c0.4,0,0.8,0.3,0.7,0.8
		C14.6,18,14.2,18.2,13.8,18.2z"/>
	<path fill="#FFFFFF" d="M43.3,17.6c0.4,0,0.7,0.3,0.8,0.7c0,0.4-0.3,0.7-0.7,0.7c-0.4,0-0.7-0.3-0.7-0.7
		C42.7,17.9,43,17.6,43.3,17.6z"/>
	<path fill="#FFFFFF" d="M51.6,20.3c-0.3,0-0.6-0.3-0.6-0.6c0-0.3,0.2-0.5,0.5-0.6c0.4,0,0.6,0.2,0.6,0.6
		C52.2,20.1,52,20.3,51.6,20.3z"/>
	<path fill="#FFFFFF" d="M20.3,19.8c0.2-0.1,0.4-0.3,0.6-0.4c0.3-0.1,0.7,0.3,0.6,0.6c-0.1,0.2-0.3,0.5-0.5,0.5
		C20.6,20.5,20.4,20.2,20.3,19.8z"/>
	<path fill="#FFFFFF" d="M49.7,28.3c-0.2,0.1-0.4,0.3-0.5,0.3c-0.2,0-0.4-0.3-0.4-0.4c0-0.1,0.2-0.4,0.4-0.4c0.2,0,0.4,0.2,0.6,0.3
		C49.7,28.2,49.7,28.2,49.7,28.3z"/>
	<path fill="#FFFFFF" d="M17.4,27.6c-0.3,0.2-0.4,0.4-0.6,0.4c-0.1,0-0.4-0.3-0.4-0.4c0-0.1,0.2-0.4,0.4-0.4
		C17,27.2,17.2,27.4,17.4,27.6z"/>
</g>
</svg>
