<?xml version="1.0" encoding="utf-8"?>
<!-- Generator: Adobe Illustrator 27.0.0, SVG Export Plug-In . SVG Version: 6.00 Build 0)  -->
<svg version="1.1" id="Layer_1" xmlns="http://www.w3.org/2000/svg" xmlns:xlink="http://www.w3.org/1999/xlink" x="0px" y="0px"
	 viewBox="0 0 391.6 66" style="enable-background:new 0 0 391.6 66;" xml:space="preserve">
<style type="text/css">
	.st0{fill:#1C8C44;}
	.st1{fill:#ED3331;}
	.st2{fill:#CDC92B;stroke:#CDC92B;stroke-width:2;stroke-miterlimit:10;}
	.st3{fill:#CDC92B;}
</style>
<g>
	<polygon class="st0" points="10.3,57.1 10.3,35.5 12.3,32 15.6,24.2 20.9,23.5 24.9,25.4 28.1,34.5 29.9,45.8 29.9,57.1 	"/>
	<polygon class="st1" points="30.6,57.1 30.6,35.5 32.6,32 35.9,24.2 41.3,23.5 45.2,25.4 48.4,34.5 50.2,45.8 50.2,57.1 	"/>
	<g>
		<path class="st2" d="M31.1,56.2h-3.3V36.3l-2.1-1.7l0.1-0.9c0-0.3,0.4-8.4-5.9-9.6c-6.3,1.2-6,9.2-5.9,9.6l0,0.9l-2.1,1.7v19.9
			H8.6V34.6l2-1.6c0-4.2,1.9-11.2,9-12.3l0.2,0l0.2,0c7.1,1.1,8.9,8,9,12.3l2,1.6V56.2z"/>
	</g>
	<path class="st3" d="M20.6,16.2h-0.3l0.5-1c0.1-0.2,0-0.5-0.3-0.5h-0.1c0.2-0.3,0.3-0.7,0.3-0.9c0-0.5,0-1.9-1-1.9
		c-1,0-1,1.4-1,1.9c0,0.2,0.2,0.5,0.3,0.9h-0.1c-0.2,0-0.4,0.3-0.3,0.5l0.5,1h-0.3c-0.2,0-0.4,0.3-0.3,0.5l0.5,1h-0.3
		c-0.2,0-0.4,0.3-0.3,0.5l0.5,1h-0.3c-0.2,0-0.4,0.3-0.3,0.5l0.8,1.4c0.1,0.2,0.4,0.2,0.5,0l0.8-1.4c0.1-0.2,0-0.5-0.3-0.5h-0.3
		l0.5-1c0.1-0.2,0-0.5-0.3-0.5h-0.3l0.5-1C21,16.4,20.9,16.2,20.6,16.2z"/>
	<g>
		<path class="st2" d="M50.5,56.2h-3.3V36.3l-2.1-1.7l0.1-0.9c0-0.3,0.4-8.4-5.9-9.6c-6.3,1.2-6,9.2-5.9,9.6l0,0.9l-2.1,1.7v19.9
			h-3.3V34.6l2-1.6c0-4.2,1.9-11.2,9-12.3l0.2,0l0.2,0c7.1,1.1,8.9,8,9,12.3l2,1.6V56.2z"/>
	</g>
	<path class="st3" d="M40.1,16.2h-0.3l0.5-1c0.1-0.2,0-0.5-0.3-0.5h-0.1c0.2-0.3,0.3-0.7,0.3-0.9c0-0.5,0-1.9-1-1.9
		c-1,0-1,1.4-1,1.9c0,0.2,0.2,0.5,0.3,0.9h-0.1c-0.2,0-0.4,0.3-0.3,0.5l0.5,1h-0.3c-0.2,0-0.4,0.3-0.3,0.5l0.5,1h-0.3
		c-0.2,0-0.4,0.3-0.3,0.5l0.5,1h-0.3c-0.2,0-0.4,0.3-0.3,0.5l0.8,1.4c0.1,0.2,0.4,0.2,0.5,0l0.8-1.4c0.1-0.2,0-0.5-0.3-0.5h-0.3
		l0.5-1c0.1-0.2,0-0.5-0.3-0.5h-0.3l0.5-1C40.5,16.4,40.3,16.2,40.1,16.2z"/>
	<g>
		<g>
			<path class="st3" d="M39.1,36.5c-1,0-1-1.4-1-2c0-0.5,0-2,1-2c1,0,1,1.4,1,2C40.1,35,40.1,36.5,39.1,36.5z"/>
		</g>
		<g>
			<path class="st3" d="M37.8,37.8c0,1.1-1.4,1.1-1.9,1.1s-1.9,0-1.9-1.1c0-1.1,1.4-1.1,1.9-1.1S37.8,36.7,37.8,37.8z"/>
		</g>
		<g>
			<path class="st3" d="M39.1,39.2c1,0,1,1.4,1,2c0,0.5,0,2-1,2c-1,0-1-1.4-1-2C38,40.6,38,39.2,39.1,39.2z"/>
		</g>
		<g>
			<path class="st3" d="M40.4,37.8c0-1.1,1.4-1.1,1.9-1.1s1.9,0,1.9,1.1c0,1.1-1.4,1.1-1.9,1.1S40.4,38.9,40.4,37.8z"/>
		</g>
		<ellipse class="st3" cx="39.1" cy="37.8" rx="0.6" ry="0.6"/>
	</g>
	<g>
		<g>
			<path class="st3" d="M20.1,35.8c-1,0-1-1.4-1-2c0-0.5,0-2,1-2c1,0,1,1.4,1,2C21.1,34.4,21.1,35.8,20.1,35.8z"/>
		</g>
		<g>
			<path class="st3" d="M18.8,37.2c0,1.1-1.4,1.1-1.9,1.1s-1.9,0-1.9-1.1c0-1.1,1.4-1.1,1.9-1.1S18.8,36.1,18.8,37.2z"/>
		</g>
		<g>
			<path class="st3" d="M20.1,38.5c1,0,1,1.4,1,2c0,0.5,0,2-1,2c-1,0-1-1.4-1-2C19,40,19,38.5,20.1,38.5z"/>
		</g>
		<g>
			<path class="st3" d="M21.4,37.2c0-1.1,1.4-1.1,1.9-1.1c0.5,0,1.9,0,1.9,1.1c0,1.1-1.4,1.1-1.9,1.1C22.8,38.3,21.4,38.3,21.4,37.2
				z"/>
		</g>
		<ellipse class="st3" cx="20.1" cy="37.2" rx="0.6" ry="0.6"/>
	</g>
</g>
<path class="st3" d="M64.6,55.4C62,54,60,52,58.6,49.5c-1.5-2.5-2.2-5.3-2.2-8.5c0-3.1,0.7-6,2.2-8.5s3.5-4.5,6-5.9
	c2.6-1.4,5.4-2.1,8.6-2.1c3.2,0,6.1,0.7,8.6,2.1c2.6,1.4,4.6,3.4,6,5.9c1.5,2.5,2.2,5.3,2.2,8.5c0,3.1-0.7,6-2.2,8.5
	c-1.5,2.5-3.5,4.5-6,5.9c-2.6,1.4-5.4,2.1-8.6,2.1C70.1,57.5,67.2,56.8,64.6,55.4z M78.2,49.9c1.5-0.9,2.6-2.1,3.5-3.6
	c0.8-1.6,1.3-3.3,1.3-5.3c0-2-0.4-3.7-1.3-5.3c-0.8-1.6-2-2.8-3.5-3.6c-1.5-0.9-3.1-1.3-4.9-1.3c-1.8,0-3.5,0.4-4.9,1.3
	c-1.5,0.9-2.6,2.1-3.5,3.6C64,37.3,63.6,39,63.6,41c0,2,0.4,3.7,1.3,5.3c0.8,1.6,2,2.8,3.5,3.6c1.5,0.9,3.1,1.3,4.9,1.3
	C75.1,51.2,76.7,50.8,78.2,49.9z"/>
<path class="st3" d="M115.1,57l-5.9-8.9h-0.4h-6.2V57h-7.1V25h13.3c2.7,0,5.1,0.5,7.1,1.4c2,0.9,3.6,2.3,4.6,4
	c1.1,1.7,1.6,3.8,1.6,6.2s-0.5,4.4-1.6,6.1c-1.1,1.7-2.7,3-4.7,3.9l6.9,10.3H115.1z M113.3,32.5c-1.1-1-2.7-1.4-4.9-1.4h-5.8v11.1
	h5.8c2.1,0,3.8-0.5,4.9-1.5c1.1-1,1.7-2.3,1.7-4.1C115,34.8,114.4,33.4,113.3,32.5z"/>
<path class="st3" d="M134.1,55.4c-2.6-1.4-4.6-3.4-6-5.9c-1.5-2.5-2.2-5.3-2.2-8.5c0-3.1,0.7-6,2.2-8.5c1.5-2.5,3.5-4.5,6-5.9
	c2.6-1.4,5.4-2.1,8.6-2.1c3.2,0,6.1,0.7,8.6,2.1c2.6,1.4,4.6,3.4,6,5.9s2.2,5.3,2.2,8.5c0,3.1-0.7,6-2.2,8.5c-1.5,2.5-3.5,4.5-6,5.9
	c-2.6,1.4-5.4,2.1-8.6,2.1C139.5,57.5,136.7,56.8,134.1,55.4z M147.7,49.9c1.5-0.9,2.6-2.1,3.5-3.6c0.8-1.6,1.3-3.3,1.3-5.3
	c0-2-0.4-3.7-1.3-5.3c-0.8-1.6-2-2.8-3.5-3.6c-1.5-0.9-3.1-1.3-4.9-1.3c-1.8,0-3.5,0.4-4.9,1.3c-1.5,0.9-2.6,2.1-3.5,3.6
	c-0.8,1.6-1.3,3.3-1.3,5.3c0,2,0.4,3.7,1.3,5.3c0.8,1.6,2,2.8,3.5,3.6c1.5,0.9,3.1,1.3,4.9,1.3C144.6,51.2,146.2,50.8,147.7,49.9z"
	/>
<path class="st3" d="M171.2,55.4c-2.5-1.4-4.5-3.4-6-5.9c-1.5-2.5-2.2-5.3-2.2-8.5c0-3.2,0.7-6,2.2-8.5c1.5-2.5,3.4-4.5,6-5.9
	c2.5-1.4,5.4-2.1,8.6-2.1c2.7,0,5.1,0.5,7.2,1.5c2.2,1,4,2.4,5.4,4.2l-4.6,4.4c-2.1-2.5-4.7-3.7-7.7-3.7c-1.9,0-3.6,0.4-5.1,1.3
	c-1.5,0.9-2.7,2.1-3.5,3.6c-0.8,1.6-1.3,3.3-1.3,5.3c0,2,0.4,3.7,1.3,5.3c0.8,1.6,2,2.8,3.5,3.6c1.5,0.9,3.2,1.3,5.1,1.3
	c3.1,0,5.7-1.3,7.7-3.8l4.6,4.4c-1.5,1.9-3.3,3.3-5.5,4.2c-2.2,1-4.6,1.5-7.3,1.5C176.6,57.5,173.7,56.8,171.2,55.4z"/>
<path class="st3" d="M202.8,55.4c-2.5-1.4-4.5-3.4-6-5.9c-1.5-2.5-2.2-5.3-2.2-8.5c0-3.2,0.7-6,2.2-8.5c1.5-2.5,3.4-4.5,6-5.9
	c2.5-1.4,5.4-2.1,8.6-2.1c2.7,0,5.1,0.5,7.2,1.5c2.2,1,4,2.4,5.4,4.2l-4.6,4.4c-2.1-2.5-4.7-3.7-7.7-3.7c-1.9,0-3.6,0.4-5.1,1.3
	c-1.5,0.9-2.7,2.1-3.5,3.6c-0.8,1.6-1.3,3.3-1.3,5.3c0,2,0.4,3.7,1.3,5.3c0.8,1.6,2,2.8,3.5,3.6c1.5,0.9,3.2,1.3,5.1,1.3
	c3.1,0,5.7-1.3,7.7-3.8l4.6,4.4c-1.5,1.9-3.3,3.3-5.5,4.2c-2.2,1-4.6,1.5-7.3,1.5C208.1,57.5,205.3,56.8,202.8,55.4z"/>
<path class="st3" d="M248.5,50.1h-14.3l-2.7,6.8h-7.3l13.7-32h7l13.8,32h-7.5L248.5,50.1z M246.2,44.5l-4.9-12.2l-4.9,12.2H246.2z"
	/>
<path class="st3" d="M290.1,25v32h-5.9l-15.4-19.4V57h-7V25h5.9l15.3,19.4V25H290.1z"/>
<path class="st3" d="M297.4,56.3c-1.7-0.8-3.2-2-4.3-3.4l4-4.9c1.7,2.3,3.6,3.5,5.7,3.5c2.9,0,4.4-1.8,4.4-5.3V31h-10.8V25h17.9
	v20.7c0,3.9-0.9,6.9-2.8,8.8c-1.9,2-4.6,2.9-8.3,2.9C301,57.5,299.1,57.1,297.4,56.3z"/>
<path class="st3" d="M327.5,55.4c-2.6-1.4-4.6-3.4-6-5.9c-1.5-2.5-2.2-5.3-2.2-8.5c0-3.1,0.7-6,2.2-8.5c1.5-2.5,3.5-4.5,6-5.9
	c2.6-1.4,5.4-2.1,8.6-2.1c3.2,0,6.1,0.7,8.6,2.1c2.6,1.4,4.6,3.4,6,5.9s2.2,5.3,2.2,8.5c0,3.1-0.7,6-2.2,8.5c-1.5,2.5-3.5,4.5-6,5.9
	c-2.6,1.4-5.4,2.1-8.6,2.1C333,57.5,330.1,56.8,327.5,55.4z M341.1,49.9c1.5-0.9,2.6-2.1,3.5-3.6c0.8-1.6,1.3-3.3,1.3-5.3
	c0-2-0.4-3.7-1.3-5.3c-0.8-1.6-2-2.8-3.5-3.6c-1.5-0.9-3.1-1.3-4.9-1.3c-1.8,0-3.5,0.4-4.9,1.3c-1.5,0.9-2.6,2.1-3.5,3.6
	c-0.8,1.6-1.3,3.3-1.3,5.3c0,2,0.4,3.7,1.3,5.3c0.8,1.6,2,2.8,3.5,3.6c1.5,0.9,3.1,1.3,4.9,1.3C338,51.2,339.6,50.8,341.1,49.9z"/>
<path class="st3" d="M371.8,45.7V57h-7.1V45.6L352.8,25h7.6l8.2,14.2l8.2-14.2h7L371.8,45.7z"/>
</svg>
